<?xml version="1.0" encoding="UTF-8" standalone="no"?>
<!-- Created with Inkscape (http://www.inkscape.org/) -->

<!-- Percentage of rectangle filled with colour created by referncing https://stackoverflow.com/questions/42969478/svg-fill-animation-for-the-given-path -->

<svg
   xmlns:osb="http://www.openswatchbook.org/uri/2009/osb"
   xmlns:dc="http://purl.org/dc/elements/1.1/"
   xmlns:cc="http://creativecommons.org/ns#"
   xmlns:rdf="http://www.w3.org/1999/02/22-rdf-syntax-ns#"
   xmlns:svg="http://www.w3.org/2000/svg"
   xmlns="http://www.w3.org/2000/svg"
   xmlns:sodipodi="http://sodipodi.sourceforge.net/DTD/sodipodi-0.dtd"
   xmlns:inkscape="http://www.inkscape.org/namespaces/inkscape"
   width="210mm"
   height="297mm"
   viewBox="0 0 744.09448819 1052.3622047"
   id="svg4165"
   version="1.1"
   inkscape:version="0.91 r13725"
   sodipodi:docname="humidity.svg">
  <defs
     id="defs4167">
    <inkscape:path-effect
       is_visible="true"
       id="path-effect6243"
       effect="spiro" />
    <inkscape:path-effect
       effect="spiro"
       id="path-effect6182"
       is_visible="true" />
    <linearGradient
       id="linearGradient4717"
       osb:paint="gradient">
      <stop
         style="stop-color:#000080;stop-opacity:1;"
         offset="0"
         id="stop4719" />
      <stop
         style="stop-color:#000080;stop-opacity:0;"
         offset="1"
         id="stop4721" />
    </linearGradient>
  </defs>
  <sodipodi:namedview
     id="base"
     pagecolor="#ffffff"
     bordercolor="#666666"
     borderopacity="1.0"
     inkscape:pageopacity="0.0"
     inkscape:pageshadow="2"
     inkscape:zoom="0.35"
     inkscape:cx="408.98389"
     inkscape:cy="442.3176"
     inkscape:document-units="px"
     inkscape:current-layer="layer1"
     showgrid="false"
     inkscape:window-width="1366"
     inkscape:window-height="705"
     inkscape:window-x="-8"
     inkscape:window-y="-8"
     inkscape:window-maximized="1" />
  <metadata
     id="metadata4170">
    <rdf:RDF>
      <cc:Work
         rdf:about="">
        <dc:format>image/svg+xml</dc:format>
        <dc:type
           rdf:resource="http://purl.org/dc/dcmitype/StillImage" />
        <dc:title />
      </cc:Work>
    </rdf:RDF>
  </metadata>
  <g
     inkscape:label="Layer 1"
     inkscape:groupmode="layer"
     id="layer1">
    <linearGradient
       id="lg"
       x1="429.14539"
       y1="853.10925"
       x2="429.14539"
       y2="402.38697"
       gradientTransform="matrix(1.5925971,0,0,2.1702934,-310.59544,-859.15272)"
       gradientUnits="userSpaceOnUse">
      <stop
         offset="0%"
         stop-opacity="1"
         stop-color="#4286f4"
         id="stop4147" />
      <stop
         offset="40%"
         stop-opacity="1"
         stop-color="#4286f4"
         id="stop4149">
        <animate
           attributeName="offset"
           from="0"
           to="0.4"
           repeatCount="1"
           dur="3s"
           begin="0s" />
      </stop>
      <stop
         offset="40%"
         stop-opacity="1"
         stop-color="white"
         id="stop4151">
        <animate
           attributeName="offset"
           from="0"
           to="0.4"
           repeatCount="1"
           dur="3s"
           begin="0s" />
      </stop>
    </linearGradient>
    <path
       style="opacity:1;fill:#000000;fill-opacity:1;stroke:none;stroke-width:1;stroke-miterlimit:4;stroke-dasharray:none;stroke-opacity:1"
       d="M 366.64725,11.487367 C 275.66077,120.57108 184.78258,229.8075 93.557957,338.62939 22.268054,433.17937 -6.0237106,565.19979 19.80626,685.13995 44.678596,807.65713 124.81125,914.20205 229.07683,963.25426 333.89884,1014.5756 460.46013,1005.35 558.4385,939.51573 658.8711,874.31219 726.62864,752.27728 734.31414,623.54421 742.09758,511.5636 704.70203,396.88005 634.23358,316.26644 629.38403,306.15306 622.74682,297.41501 614.64913,290.15598 533.23925,195.84632 450.93429,102.41894 369.18149,8.4472512 c -0.84474,1.0133718 -1.68951,2.0267428 -2.53424,3.0401158 z"
       id="path4168"
       inkscape:connector-curvature="0" />
    <path
       d="M 366.70585,17.185161 C 277.75074,123.45026 189.5505,230.59489 100.00696,336.18865 60.078526,388.15406 32.132174,451.57175 20.716692,518.70486 c -11.657847,63.17667 -7.886318,129.25476 8.50714,190.9766 17.292961,62.16232 47.995058,119.6974 89.528298,165.72575 42.63044,47.51229 96.27848,82.53576 154.28537,101.32026 54.16618,17.30006 111.86791,20.31533 167.25986,8.60427 58.76675,-12.56904 114.4997,-41.599 160.76922,-83.72622 46.1385,-42.28146 82.50186,-97.38941 104.89772,-158.9633 24.58746,-68.52163 32.26212,-144.65476 20.17932,-217.31483 -10.35226,-66.67788 -36.82829,-130.06298 -75.37266,-182.474 -6.60312,-10.76097 -17.23741,-19.24632 -22.90924,-29.86411 -2.69065,-9.40892 -13.68947,-16.17948 -19.33024,-24.65139 C 528.7677,196.94027 449.00382,105.54276 369.2401,14.145064 c -0.84474,1.013373 -1.6895,2.026744 -2.53425,3.040097 z"
       id="circle6239"
       inkscape:connector-curvature="0"
       style="fill:url(#lg)" />
    <path
       style="fill:none;fill-rule:evenodd;stroke:#000000;stroke-width:1.80927706px;stroke-linecap:butt;stroke-linejoin:miter;stroke-opacity:1"
       d="m 319.36035,-224.34984 0,0 z"
       id="path6180"
       inkscape:path-effect="#path-effect6182"
       inkscape:original-d="m 319.36035,-224.34984 c 351.68021,590.40115 -331.584172,-590.40114 0,0 z"
       inkscape:connector-curvature="0" />
  </g>
</svg>
