<svg xmlns="http://www.w3.org/2000/svg" width="210mm" height="297mm" viewBox="0 0 744.094 1052.362">
<linearGradient id="a" x1=".5" y1="1" x2=".5">
    <stop offset="0%" stop-color="#D40000"/>
    <stop class="fillLevel" offset="40%" stop-color="#D40000">
        <animate class="animationFillLevel" attributeName="offset" from="0" to=".4" repeatCount="1" dur="3s" begin="0s"/>
    </stop>
    <stop class="fillLevel" offset="40%" stop-color="#fff">
        <animate class="animationFillLevel" attributeName="offset" from="0" to=".4" repeatCount="1" dur="3s" begin="0s"/>
    </stop>
</linearGradient>
    <path d="M316.773 48.654c-17.462-.156-35.859 12.866-36.656 31.264 1.255 208.12 2.718 416.242 4.053 624.363-32.342 18.609-59.006 47.89-71.51 83.325-11.421 32.657-9.697 69.601 5.06 100.925 18.518 40.656 55.858 70.73 97.568 85.335 53.824 19.159 115.937 14.252 165.608-14.224 36.814-21.022 66.499-56.404 75.732-98.299 9.264-38.987-1.12-81.399-25.402-112.993-13.067-17.562-30.046-32.017-48.79-43.235-1.447-208.71-2.59-417.43-4.227-626.133-1.72-18.74-21.083-31.212-38.92-30.337-40.838.006-81.677-.014-122.516.01z" stroke="#000" stroke-width="1.076"/>
    <path d="M317.722 50.645c-19.859 0-35.755 13.8-35.643 30.944l4.1 623.792a175.511 151.518 0 0 0-79.13 126.54A175.511 151.518 0 0 0 382.56 983.44 175.511 151.518 0 0 0 558.07 831.922a175.511 151.518 0 0 0-77.627-125.7L476.339 81.59c-.113-17.144-16.19-30.944-36.05-30.944H317.722z" fill="url(#a)"/>
</svg>